<svg>
<path d="M4.8951 5.55944C5.47786 5.81585 5.9324 6.20047 6.25874 6.71329C6.58508 7.22611 6.74825 7.83217 6.74825 8.53147C6.74825 9.5338 6.43357 10.3497 5.8042 10.979C5.17483 11.5851 4.37063 11.8881 3.39161 11.8881C2.41259 11.8881 1.59674 11.5734 0.944056 10.9441C0.314685 10.3147 0 9.51049 0 8.53147C0 8.06527 0.058275 7.59907 0.174825 7.13287C0.291375 6.66667 0.547785 5.96737 0.944056 5.03497L2.97203 0H6.43357L4.8951 5.55944ZM13.1469 5.55944C13.7296 5.81585 14.1841 6.20047 14.5105 6.71329C14.8368 7.22611 15 7.83217 15 8.53147C15 9.5338 14.6853 10.3497 14.0559 10.979C13.4266 11.5851 12.6224 11.8881 11.6434 11.8881C10.6643 11.8881 9.84848 11.5734 9.1958 10.9441C8.56643 10.3147 8.25175 9.51049 8.25175 8.53147C8.25175 8.06527 8.31002 7.59907 8.42657 7.13287C8.54312 6.66667 8.79953 5.96737 9.1958 5.03497L11.2238 0H14.6853L13.1469 5.55944Z" />
</svg>
