<svg width="271" height="28" viewBox="0 0 271 28" fill="none" xmlns="http://www.w3.org/2000/svg">
<path d="M9.72301 27.358C7.8821 27.358 6.24574 27.0426 4.81392 26.4119C3.39063 25.7812 2.26563 24.9034 1.43892 23.7784C0.612216 22.6534 0.173296 21.3537 0.122159 19.8793H4.92898C4.97159 20.5866 5.20597 21.2045 5.6321 21.733C6.05824 22.2528 6.625 22.6577 7.33239 22.9474C8.03977 23.2372 8.83239 23.3821 9.71023 23.3821C10.6477 23.3821 11.4787 23.2202 12.2031 22.8963C12.9276 22.5639 13.4943 22.1037 13.9034 21.5156C14.3125 20.9276 14.5128 20.25 14.5043 19.483C14.5128 18.6903 14.3082 17.9915 13.8906 17.3864C13.473 16.7812 12.8679 16.3082 12.0753 15.9673C11.2912 15.6264 10.3452 15.456 9.23722 15.456H6.9233V11.7997H9.23722C10.1491 11.7997 10.946 11.642 11.6278 11.3267C12.3182 11.0114 12.8594 10.5682 13.2514 9.99716C13.6435 9.41761 13.8352 8.74858 13.8267 7.99006C13.8352 7.24858 13.669 6.60511 13.3281 6.05966C12.9957 5.50568 12.5227 5.07528 11.9091 4.76847C11.304 4.46165 10.5923 4.30824 9.77415 4.30824C8.97301 4.30824 8.23153 4.45312 7.54972 4.7429C6.8679 5.03267 6.31818 5.44602 5.90057 5.98295C5.48295 6.51136 5.26136 7.14204 5.2358 7.875H0.671875C0.705966 6.40909 1.12784 5.12216 1.9375 4.0142C2.75568 2.89773 3.84659 2.02841 5.21023 1.40625C6.57386 0.775568 8.10369 0.460226 9.79972 0.460226C11.5469 0.460226 13.0639 0.788351 14.3509 1.4446C15.6463 2.09233 16.6477 2.96591 17.3551 4.06534C18.0625 5.16477 18.4162 6.37926 18.4162 7.70881C18.4247 9.18324 17.9901 10.419 17.1122 11.4162C16.2429 12.4134 15.1009 13.0653 13.6861 13.3722V13.5767C15.527 13.8324 16.9375 14.5142 17.9176 15.6222C18.9063 16.7216 19.3963 18.0895 19.3878 19.7259C19.3878 21.1918 18.9702 22.5043 18.1349 23.6634C17.3082 24.8139 16.1662 25.7173 14.7088 26.3736C13.2599 27.0298 11.598 27.358 9.72301 27.358ZM33.6238 27H24.7516V0.818181H33.8027C36.4022 0.818181 38.6351 1.34233 40.5016 2.39062C42.3766 3.4304 43.8169 4.92614 44.8226 6.87784C45.8283 8.82955 46.3312 11.1648 46.3312 13.8835C46.3312 16.6108 45.824 18.9545 44.8098 20.9148C43.8042 22.875 42.351 24.3793 40.4505 25.4276C38.5584 26.4759 36.2829 27 33.6238 27ZM29.4945 22.8963H33.3937C35.2175 22.8963 36.7388 22.5639 37.9576 21.8991C39.1763 21.2259 40.0925 20.2244 40.7062 18.8949C41.3198 17.5568 41.6266 15.8864 41.6266 13.8835C41.6266 11.8807 41.3198 10.2187 40.7062 8.89773C40.0925 7.56818 39.1848 6.57528 37.9831 5.91903C36.79 5.25426 35.307 4.92188 33.5343 4.92188H29.4945V22.8963ZM65.9501 0.818181V27H61.2072V0.818181H65.9501ZM93.3218 0.818181V27H89.103L76.7664 9.16619H76.549V27H71.8061V0.818181H76.0505L88.3743 18.6648H88.6044V0.818181H93.3218ZM113.438 8.01562C113.319 6.89915 112.816 6.02983 111.93 5.40767C111.052 4.78551 109.91 4.47443 108.504 4.47443C107.515 4.47443 106.667 4.62358 105.96 4.92188C105.252 5.22017 104.711 5.625 104.336 6.13636C103.961 6.64773 103.769 7.23153 103.761 7.88778C103.761 8.43324 103.884 8.90625 104.132 9.30682C104.387 9.70739 104.732 10.0483 105.167 10.3295C105.602 10.6023 106.083 10.8324 106.612 11.0199C107.14 11.2074 107.673 11.3651 108.21 11.4929L110.664 12.1065C111.653 12.3366 112.603 12.6477 113.515 13.0398C114.436 13.4318 115.258 13.9261 115.982 14.5227C116.715 15.1193 117.295 15.8395 117.721 16.6832C118.147 17.527 118.36 18.5156 118.36 19.6491C118.36 21.1832 117.968 22.5341 117.184 23.7017C116.4 24.8608 115.267 25.7685 113.784 26.4247C112.309 27.0724 110.524 27.3963 108.427 27.3963C106.39 27.3963 104.622 27.081 103.122 26.4503C101.63 25.8196 100.463 24.8991 99.6188 23.6889C98.7836 22.4787 98.3319 21.0043 98.2637 19.2656H102.93C102.998 20.1776 103.279 20.9361 103.774 21.5412C104.268 22.1463 104.911 22.598 105.704 22.8963C106.505 23.1946 107.4 23.3438 108.389 23.3438C109.42 23.3438 110.323 23.1903 111.099 22.8835C111.883 22.5682 112.497 22.1335 112.94 21.5795C113.383 21.017 113.609 20.3608 113.617 19.6108C113.609 18.929 113.409 18.3665 113.017 17.9233C112.625 17.4716 112.075 17.0966 111.367 16.7983C110.669 16.4915 109.85 16.2187 108.913 15.9801L105.934 15.2131C103.778 14.6591 102.073 13.8196 100.821 12.6946C99.5762 11.5611 98.954 10.0568 98.954 8.18182C98.954 6.6392 99.3717 5.28835 100.207 4.12926C101.051 2.97017 102.197 2.07102 103.646 1.43182C105.095 0.78409 106.735 0.460226 108.568 0.460226C110.426 0.460226 112.053 0.78409 113.451 1.43182C114.857 2.07102 115.961 2.96165 116.762 4.10369C117.563 5.23721 117.977 6.54119 118.002 8.01562H113.438ZM122.158 4.79403V0.818181H143.047V4.79403H134.955V27H130.25V4.79403H122.158ZM147.992 27H142.93L152.147 0.818181H158.002L167.232 27H162.17L155.177 6.1875H154.973L147.992 27ZM148.159 16.7344H161.965V20.544H148.159V16.7344ZM185.208 8.01562C185.088 6.89915 184.586 6.02983 183.699 5.40767C182.821 4.78551 181.679 4.47443 180.273 4.47443C179.284 4.47443 178.436 4.62358 177.729 4.92188C177.022 5.22017 176.481 5.625 176.106 6.13636C175.731 6.64773 175.539 7.23153 175.53 7.88778C175.53 8.43324 175.654 8.90625 175.901 9.30682C176.157 9.70739 176.502 10.0483 176.936 10.3295C177.371 10.6023 177.853 10.8324 178.381 11.0199C178.909 11.2074 179.442 11.3651 179.979 11.4929L182.434 12.1065C183.422 12.3366 184.373 12.6477 185.284 13.0398C186.205 13.4318 187.027 13.9261 187.752 14.5227C188.485 15.1193 189.064 15.8395 189.49 16.6832C189.917 17.527 190.13 18.5156 190.13 19.6491C190.13 21.1832 189.738 22.5341 188.954 23.7017C188.169 24.8608 187.036 25.7685 185.553 26.4247C184.079 27.0724 182.293 27.3963 180.196 27.3963C178.159 27.3963 176.391 27.081 174.891 26.4503C173.4 25.8196 172.232 24.8991 171.388 23.6889C170.553 22.4787 170.101 21.0043 170.033 19.2656H174.699C174.767 20.1776 175.049 20.9361 175.543 21.5412C176.037 22.1463 176.681 22.598 177.473 22.8963C178.275 23.1946 179.169 23.3438 180.158 23.3438C181.189 23.3438 182.093 23.1903 182.868 22.8835C183.652 22.5682 184.266 22.1335 184.709 21.5795C185.152 21.017 185.378 20.3608 185.387 19.6108C185.378 18.929 185.178 18.3665 184.786 17.9233C184.394 17.4716 183.844 17.0966 183.137 16.7983C182.438 16.4915 181.62 16.2187 180.682 15.9801L177.704 15.2131C175.547 14.6591 173.843 13.8196 172.59 12.6946C171.346 11.5611 170.723 10.0568 170.723 8.18182C170.723 6.6392 171.141 5.28835 171.976 4.12926C172.82 2.97017 173.966 2.07102 175.415 1.43182C176.864 0.78409 178.505 0.460226 180.337 0.460226C182.195 0.460226 183.823 0.78409 185.221 1.43182C186.627 2.07102 187.731 2.96165 188.532 4.10369C189.333 5.23721 189.746 6.54119 189.772 8.01562H185.208ZM195.078 27V0.818181H199.821V11.902H211.953V0.818181H216.709V27H211.953V15.8778H199.821V27H195.078ZM245.982 13.9091C245.982 16.7301 245.454 19.1463 244.397 21.1577C243.348 23.1605 241.917 24.6946 240.101 25.7599C238.294 26.8253 236.245 27.358 233.952 27.358C231.66 27.358 229.606 26.8253 227.79 25.7599C225.983 24.6861 224.552 23.1477 223.495 21.1449C222.446 19.1335 221.922 16.7216 221.922 13.9091C221.922 11.0881 222.446 8.67614 223.495 6.6733C224.552 4.66193 225.983 3.12358 227.79 2.05824C229.606 0.992897 231.66 0.460226 233.952 0.460226C236.245 0.460226 238.294 0.992897 240.101 2.05824C241.917 3.12358 243.348 4.66193 244.397 6.6733C245.454 8.67614 245.982 11.0881 245.982 13.9091ZM241.213 13.9091C241.213 11.9233 240.902 10.2486 240.28 8.88494C239.667 7.51278 238.814 6.47727 237.723 5.77841C236.633 5.07102 235.375 4.71733 233.952 4.71733C232.529 4.71733 231.272 5.07102 230.181 5.77841C229.09 6.47727 228.233 7.51278 227.611 8.88494C226.998 10.2486 226.691 11.9233 226.691 13.9091C226.691 15.8949 226.998 17.5739 227.611 18.946C228.233 20.3097 229.09 21.3452 230.181 22.0526C231.272 22.7514 232.529 23.1009 233.952 23.1009C235.375 23.1009 236.633 22.7514 237.723 22.0526C238.814 21.3452 239.667 20.3097 240.28 18.946C240.902 17.5739 241.213 15.8949 241.213 13.9091ZM251.186 27V0.818181H261.004C263.016 0.818181 264.703 1.19318 266.067 1.94318C267.439 2.69318 268.474 3.72443 269.173 5.03693C269.881 6.34091 270.234 7.82386 270.234 9.4858C270.234 11.1648 269.881 12.6562 269.173 13.9602C268.466 15.2642 267.422 16.2912 266.041 17.0412C264.66 17.7827 262.96 18.1534 260.94 18.1534H254.433V14.2543H260.301C261.477 14.2543 262.44 14.0497 263.19 13.6406C263.94 13.2315 264.494 12.669 264.852 11.9531C265.219 11.2372 265.402 10.4148 265.402 9.4858C265.402 8.55682 265.219 7.73864 264.852 7.03125C264.494 6.32386 263.936 5.77415 263.177 5.3821C262.427 4.98153 261.46 4.78125 260.275 4.78125H255.929V27H251.186Z" fill="#4F4F4F"/>
</svg>
