<svg style="display: none;" aria-hidden="true" xmlns="http://www.w3.org/2000/svg" xmlns:xlink="http://www.w3.org/1999/xlink"><symbol viewBox="0 0 NaN NaN" id="svg-arrow"><path d="M3.327 2.06a.53.53 0 0 1 0-.707.438.438 0 0 1 .654 0l3.046 3.293A.52.52 0 0 1 7.162 5a.52.52 0 0 1-.135.354L3.98 8.646a.438.438 0 0 1-.654 0 .53.53 0 0 1 0-.707L6.046 5 3.327 2.062Z"/></symbol><symbol viewBox="0 0 37 36" id="svg-error" xmlns="http://www.w3.org/2000/svg"><path d="M18.5 33c8.284 0 15-6.716 15-15 0-8.284-6.716-15-15-15-8.284 0-15 6.716-15 15 0 8.284 6.716 15 15 15ZM8 28.5l21-21"/></symbol><symbol fill="none" viewBox="0 0 29 20" id="svg-ok" xmlns="http://www.w3.org/2000/svg"><path d="m1 10 9 9L28 1"/></symbol><symbol viewBox="0 0 NaN NaN" id="svg-quote"><path d="M4.895 5.56A3.01 3.01 0 0 1 6.26 6.712c.326.513.49 1.12.49 1.818 0 1.003-.315 1.819-.945 2.448-.63.606-1.433.91-2.412.91-.98 0-1.795-.316-2.448-.945C.314 10.314 0 9.51 0 8.531c0-.466.058-.932.175-1.398.116-.466.373-1.166.77-2.098L2.971 0h3.462L4.895 5.56Zm8.252 0a3.011 3.011 0 0 1 1.364 1.153c.326.513.489 1.12.489 1.818 0 1.003-.315 1.819-.944 2.448-.63.606-1.434.91-2.413.91-.979 0-1.795-.316-2.447-.945-.63-.63-.944-1.434-.944-2.413 0-.466.058-.932.175-1.398.116-.466.373-1.166.769-2.098L11.224 0h3.461l-1.538 5.56Z"/></symbol></svg>